<?xml version="1.0" standalone="no"?>
<!DOCTYPE svg PUBLIC "-//W3C//DTD SVG 20010904//EN"
 "http://www.w3.org/TR/2001/REC-SVG-20010904/DTD/svg10.dtd">
<svg version="1.0" xmlns="http://www.w3.org/2000/svg"
 width="1200.000000pt" height="1145.000000pt" viewBox="0 0 1200.000000 1145.000000"
 preserveAspectRatio="xMidYMid meet">
<g transform="translate(0.000000,1145.000000) scale(0.100000,-0.100000)"
fill="#000000" stroke="none">
<path d="M3823 8909 c-55 -21 -122 -79 -147 -126 -8 -16 -150 -447 -316 -958
-166 -512 -419 -1290 -563 -1730 l-262 -800 0 -101 c0 -95 2 -103 37 -175 21
-41 56 -92 80 -115 52 -50 3260 -2381 3295 -2395 38 -14 96 -11 133 9 62 32
3223 2333 3278 2386 32 31 65 77 85 116 26 56 32 79 35 160 l4 95 -567 1745
c-312 960 -576 1759 -586 1777 -65 105 -212 157 -341 119 -61 -17 -138 -78
-165 -130 -9 -17 -175 -517 -368 -1111 l-351 -1080 -1097 -3 -1096 -2 -39 122
c-183 569 -667 2049 -679 2071 -61 120 -234 178 -370 126z m421 -1365 c168
-517 306 -944 306 -947 0 -4 -277 -7 -615 -7 -338 0 -615 3 -615 6 0 3 133
416 295 917 163 502 301 927 306 945 6 18 12 32 14 30 2 -2 141 -426 309 -944z
m4146 -7 l306 -942 -615 -3 c-338 -1 -615 -1 -617 1 -5 4 609 1887 615 1887 3
0 143 -424 311 -943z m-3288 -2634 c241 -741 436 -1348 435 -1350 -2 -1 -459
583 -1017 1299 -558 716 -1032 1323 -1053 1350 l-39 48 619 0 618 0 437 -1347z
m1882 1325 c-26 -86 -976 -3003 -977 -3005 -1 -1 -186 566 -411 1260 -226 694
-447 1376 -492 1515 l-82 252 985 0 984 0 -7 -22z m1590 11 c-11 -19 -2074
-2663 -2090 -2679 -10 -10 -9 2 6 45 11 33 206 636 435 1340 228 704 417 1286
420 1293 3 9 137 12 620 12 459 0 614 -3 609 -11z m-4439 -1447 c537 -690 975
-1255 973 -1256 -5 -5 -2212 1603 -2225 1621 -7 9 -13 26 -13 37 0 32 273 867
281 859 3 -5 446 -572 984 -1261z m4879 824 c122 -376 134 -422 123 -445 -9
-20 -1259 -938 -2196 -1613 -24 -17 -40 -24 -35 -16 34 57 1958 2508 1964
2501 5 -4 69 -197 144 -427z"/>
</g>
</svg>
