<?xml version="1.0" encoding="UTF-8" standalone="no"?>
<svg
   inkscape:version="1.1.1 (3bf5ae0d25, 2021-09-20, custom)"
   sodipodi:docname="Mindmapp.svg"
   id="svg12"
   xml:space="preserve"
   viewBox="0 0 489.59516 87.562386"
   y="0px"
   x="0px"
   version="1.1"
   fill="#00a3d3"
   width="489.59515"
   height="87.562386"
   xmlns:inkscape="http://www.inkscape.org/namespaces/inkscape"
   xmlns:sodipodi="http://sodipodi.sourceforge.net/DTD/sodipodi-0.dtd"
   xmlns="http://www.w3.org/2000/svg"
   xmlns:svg="http://www.w3.org/2000/svg"
   xmlns:rdf="http://www.w3.org/1999/02/22-rdf-syntax-ns#"
   xmlns:cc="http://creativecommons.org/ns#"
   xmlns:dc="http://purl.org/dc/elements/1.1/"><g
     aria-label="Mindmapper"
     id="text13352"
     style="font-size:71.1261px;line-height:1.25;letter-spacing:0px;word-spacing:0px;fill:#000000;stroke-width:3.81032" /><sodipodi:namedview
     inkscape:document-rotation="0"
     pagecolor="#ffffff"
     bordercolor="#666666"
     borderopacity="1"
     objecttolerance="10"
     gridtolerance="10"
     guidetolerance="10"
     inkscape:pageopacity="0"
     inkscape:pageshadow="2"
     inkscape:window-width="1920"
     inkscape:window-height="1013"
     id="namedview10"
     showgrid="false"
     inkscape:zoom="1.57"
     inkscape:cx="243.63057"
     inkscape:cy="40.127389"
     inkscape:window-x="0"
     inkscape:window-y="38"
     inkscape:window-maximized="1"
     inkscape:current-layer="g31597"
     inkscape:pagecheckerboard="0" /><metadata
     id="metadata18"><rdf:RDF><cc:Work
         rdf:about=""><dc:format>image/svg+xml</dc:format><dc:type
           rdf:resource="http://purl.org/dc/dcmitype/StillImage" /></cc:Work></rdf:RDF></metadata><defs
     id="defs16"><rect
       x="101.00043"
       y="16.561638"
       width="350.64413"
       height="71.003944"
       id="rect9408" /><rect
       x="105.61219"
       y="9.0322132"
       width="208.49744"
       height="85.73774"
       id="rect837" /></defs><text
     xml:space="preserve"
     id="text835"
     style="font-style:normal;font-weight:normal;font-size:40px;line-height:1.25;font-family:sans-serif;letter-spacing:0px;word-spacing:0px;white-space:pre;shape-inside:url(#rect837);fill:#000000;fill-opacity:1;stroke:none"
     transform="translate(-0.82097303,-9.9724582)" /><g
     id="g31597"><path
       d="m 135.03149,72.412529 h -6.5436 l -1.70703,-22.120217 q -1.06689,-13.016076 -1.20914,-19.986433 l -10.59779,36.558814 h -6.33022 L 97.476908,30.234753 q 0,8.890762 -0.924639,20.555442 l -1.6359,21.622334 H 88.51502 l 4.054187,-49.005882 h 9.104143 l 10.31328,35.634175 9.8154,-35.634175 h 9.17527 z"
       style="font-size:71.1261px;line-height:1.25;letter-spacing:0px;word-spacing:0px;fill:#000000;stroke-width:3.81032;font-family:'Fira Sans';-inkscape-font-specification:'Fira Sans, Normal'"
       id="path31536" /><path
       d="m 149.18557,16.934172 q 2.06266,0 3.34293,1.28027 1.28027,1.28027 1.28027,3.200674 0,1.920405 -1.28027,3.200675 -1.28027,1.209143 -3.34293,1.209143 -1.99153,0 -3.2718,-1.209143 -1.28027,-1.28027 -1.28027,-3.200675 0,-1.920404 1.28027,-3.200674 1.28027,-1.28027 3.2718,-1.28027 z m 3.34293,55.478357 h -6.5436 V 34.929075 h 6.5436 z"
       style="font-size:71.1261px;line-height:1.25;letter-spacing:0px;word-spacing:0px;fill:#000000;stroke-width:3.81032;font-family:'Fira Sans';-inkscape-font-specification:'Fira Sans, Normal'"
       id="path31538" /><path
       d="m 183.25491,34.075562 q 5.12108,0 7.96612,3.058422 2.91617,3.058422 2.91617,8.39288 v 26.885665 h -6.5436 V 46.451503 q 0,-3.983062 -1.49365,-5.618962 -1.49364,-1.6359 -4.40981,-1.6359 -2.9873,0 -5.26334,1.707026 -2.27603,1.707027 -4.26756,4.907701 v 26.601161 h -6.5436 V 34.929075 h 5.61896 l 0.56901,5.547836 q 1.99153,-2.987296 4.9077,-4.694323 2.9873,-1.707026 6.5436,-1.707026 z"
       style="font-size:71.1261px;line-height:1.25;letter-spacing:0px;word-spacing:0px;fill:#000000;stroke-width:3.81032;font-family:'Fira Sans';-inkscape-font-specification:'Fira Sans, Normal'"
       id="path31540" /><path
       d="m 235.67488,19.850342 v 52.562187 h -5.76122 l -0.64013,-5.192205 q -1.84928,2.845044 -4.6232,4.480944 -2.77391,1.564774 -6.18797,1.564774 -6.68585,0 -10.45553,-5.263331 -3.69856,-5.263331 -3.69856,-14.154094 0,-5.761214 1.77815,-10.242158 1.77815,-4.480944 5.12108,-6.970358 3.34293,-2.560539 7.82387,-2.560539 5.76122,0 10.09991,4.623196 V 19.067955 Z m -15.79,48.223495 q 2.9873,0 5.12108,-1.351396 2.13379,-1.422522 4.12532,-4.19644 V 44.175468 q -1.84928,-2.418288 -3.98306,-3.627431 -2.06266,-1.28027 -4.69433,-1.28027 -4.33869,0 -6.75698,3.627431 -2.34716,3.627431 -2.34716,10.811167 0,7.254862 2.20491,10.811167 2.20491,3.556305 6.33022,3.556305 z"
       style="font-size:71.1261px;line-height:1.25;letter-spacing:0px;word-spacing:0px;fill:#000000;stroke-width:3.81032;font-family:'Fira Sans';-inkscape-font-specification:'Fira Sans, Normal'"
       id="path31542" /><path
       d="m 286.38779,34.075562 q 4.6232,0 7.39711,3.129548 2.77392,3.058422 2.77392,8.321754 v 26.885665 h -6.5436 V 46.451503 q 0,-7.254862 -5.26333,-7.254862 -2.77392,0 -4.69432,1.6359 -1.92041,1.564774 -4.12532,4.978827 v 26.601161 h -6.5436 V 46.451503 q 0,-7.254862 -5.26333,-7.254862 -2.84504,0 -4.76545,1.6359 -1.9204,1.6359 -4.05418,4.978827 v 26.601161 h -6.54361 V 34.929075 h 5.61897 l 0.569,5.47671 q 4.19644,-6.330223 10.81117,-6.330223 3.48518,0 5.90347,1.778152 2.48941,1.778153 3.5563,4.978827 2.20491,-3.2718 4.83658,-4.978827 2.70279,-1.778152 6.33022,-1.778152 z"
       style="font-size:71.1261px;line-height:1.25;letter-spacing:0px;word-spacing:0px;fill:#000000;stroke-width:3.81032;font-family:'Fira Sans';-inkscape-font-specification:'Fira Sans, Normal'"
       id="path31544" /><path
       d="m 334.32681,63.664019 q 0,2.276035 0.78239,3.414053 0.78239,1.066891 2.34716,1.6359 l -1.49365,4.55207 q -2.91617,-0.35563 -4.69432,-1.6359 -1.77815,-1.28027 -2.63167,-3.983062 -3.76968,5.618962 -11.16679,5.618962 -5.54784,0 -8.74851,-3.129548 -3.20068,-3.129549 -3.20068,-8.179502 0,-5.974592 4.26757,-9.175266 4.33869,-3.200675 12.23369,-3.200675 h 5.76121 v -2.773918 q 0,-3.983061 -1.9204,-5.690087 -1.92041,-1.707027 -5.90347,-1.707027 -4.12531,0 -10.09991,1.991531 l -1.6359,-4.765449 q 6.97036,-2.560539 12.94495,-2.560539 6.61473,0 9.88653,3.2718 3.2718,3.200675 3.2718,9.175267 z m -15.36324,4.694322 q 5.61897,0 8.81964,-5.83234 v -8.606258 h -4.9077 q -10.38441,0 -10.38441,7.681619 0,3.342927 1.6359,5.049953 1.6359,1.707026 4.83657,1.707026 z"
       style="font-size:71.1261px;line-height:1.25;letter-spacing:0px;word-spacing:0px;fill:#000000;stroke-width:3.81032;font-family:'Fira Sans';-inkscape-font-specification:'Fira Sans, Normal'"
       id="path31546" /><path
       d="m 364.76876,34.075562 q 7.18373,0 10.52666,5.121079 3.34293,5.121079 3.34293,14.438598 0,8.819636 -3.84081,14.22522 -3.84081,5.405583 -10.88229,5.405583 -6.2591,0 -9.81541,-4.267566 v 17.781525 l -6.5436,0.782387 V 34.929075 h 5.61896 l 0.49789,5.049953 q 2.06265,-2.845044 4.97882,-4.338692 2.91617,-1.564774 6.11685,-1.564774 z m -2.41829,33.856023 q 9.24639,0 9.24639,-14.296346 0,-14.367472 -8.464,-14.367472 -2.77392,0 -5.04995,1.6359 -2.27604,1.635901 -3.98307,4.19644 v 18.279407 q 1.42253,2.20491 3.55631,3.414053 2.13378,1.138018 4.69432,1.138018 z"
       style="font-size:71.1261px;line-height:1.25;letter-spacing:0px;word-spacing:0px;fill:#000000;stroke-width:3.81032;font-family:'Fira Sans';-inkscape-font-specification:'Fira Sans, Normal'"
       id="path31548" /><path
       d="m 406.44869,34.075562 q 7.18374,0 10.52666,5.121079 3.34293,5.121079 3.34293,14.438598 0,8.819636 -3.84081,14.22522 -3.84081,5.405583 -10.88229,5.405583 -6.2591,0 -9.8154,-4.267566 v 17.781525 l -6.54361,0.782387 V 34.929075 h 5.61897 l 0.49788,5.049953 q 2.06266,-2.845044 4.97883,-4.338692 2.91617,-1.564774 6.11684,-1.564774 z m -2.41829,33.856023 q 9.2464,0 9.2464,-14.296346 0,-14.367472 -8.46401,-14.367472 -2.77392,0 -5.04995,1.6359 -2.27604,1.635901 -3.98306,4.19644 v 18.279407 q 1.42252,2.20491 3.5563,3.414053 2.13378,1.138018 4.69432,1.138018 z"
       style="font-size:71.1261px;line-height:1.25;letter-spacing:0px;word-spacing:0px;fill:#000000;stroke-width:3.81032;font-family:'Fira Sans';-inkscape-font-specification:'Fira Sans, Normal'"
       id="path31550" /><path
       d="m 459.43764,52.568347 q 0,1.635901 -0.14225,3.342927 h -23.89837 q 0.42676,6.187971 3.12955,9.104141 2.70279,2.91617 6.97036,2.91617 2.70279,0 4.97882,-0.782387 2.27604,-0.782387 4.76545,-2.489414 l 2.84505,3.911936 q -5.9746,4.694322 -13.08721,4.694322 -7.82387,0 -12.23369,-5.121079 -4.33869,-5.121079 -4.33869,-14.082967 0,-5.832341 1.84928,-10.313285 1.92041,-4.55207 5.40558,-7.11261 3.55631,-2.560539 8.32176,-2.560539 7.46824,0 11.4513,4.907701 3.98306,4.9077 3.98306,13.585084 z m -6.47247,-1.920404 q 0,-5.547836 -2.20491,-8.464006 -2.20491,-2.91617 -6.61473,-2.91617 -8.03725,0 -8.74851,11.806932 h 17.56815 z"
       style="font-size:71.1261px;line-height:1.25;letter-spacing:0px;word-spacing:0px;fill:#000000;stroke-width:3.81032;font-family:'Fira Sans';-inkscape-font-specification:'Fira Sans, Normal'"
       id="path31552" /><path
       d="m 485.89661,34.075562 q 1.99153,0 3.69856,0.426756 l -1.20915,6.401349 q -1.70702,-0.426756 -3.2718,-0.426756 -3.48518,0 -5.61896,2.560539 -2.13378,2.56054 -3.34293,7.966123 v 21.408956 h -6.5436 V 34.929075 h 5.61897 l 0.64013,7.610493 q 1.49365,-4.19644 4.05419,-6.330223 2.56054,-2.133783 5.97459,-2.133783 z"
       style="font-size:71.1261px;line-height:1.25;letter-spacing:0px;word-spacing:0px;fill:#000000;stroke-width:3.81032;font-family:'Fira Sans';-inkscape-font-specification:'Fira Sans, Normal'"
       id="path31554" /><g
       transform="translate(196.7,-216.8)"
       id="g1527"
       style="fill:#00a3d3;fill-opacity:1"><path
         d="m -120.9,252.4 c -3.4,0 -6.2,2.2 -7.2,5.2 l -11.8,-1.2 c -0.1,-4.7 -2.3,-8.8 -5.8,-11.4 l 7.9,-13.4 c 0.7,0.2 1.5,0.4 2.4,0.4 4.2,0 7.6,-3.4 7.6,-7.6 0,-4.2 -3.4,-7.6 -7.6,-7.6 -4.2,0 -7.6,3.4 -7.6,7.6 0,2.2 0.9,4.1 2.4,5.5 l -7.9,13.4 c -1.8,-0.8 -3.8,-1.3 -6,-1.3 -3.6,0 -6.8,1.3 -9.4,3.4 l -6.8,-6.4 c 0.7,-1.1 1.1,-2.5 1.1,-3.9 0,-4.2 -3.4,-7.6 -7.6,-7.6 -4.2,0 -7.6,3.4 -7.6,7.6 0,4.2 3.4,7.6 7.6,7.6 1.6,0 3,-0.5 4.3,-1.3 l 6.8,6.4 c -1.8,2.4 -2.9,5.5 -2.9,8.7 0,1 0.1,2.1 0.3,3 l -13.9,4.7 c -1.3,-2.2 -3.7,-3.7 -6.5,-3.7 -4.2,0 -7.6,3.4 -7.6,7.6 0,4.2 3.4,7.6 7.6,7.6 4.2,0 7.6,-3.4 7.6,-7.6 0,-0.3 0,-0.5 0,-0.8 l 13.9,-4.7 c 2.3,5 7.3,8.4 13.2,8.4 0.6,0 1.1,0 1.6,-0.1 l 2.6,11.5 c -2.6,1.2 -4.3,3.8 -4.3,6.8 0,4.2 3.4,7.6 7.6,7.6 4.2,0 7.6,-3.4 7.6,-7.6 0,-4.2 -3.4,-7.6 -7.6,-7.6 0,0 0,0 -0.1,0 l -2.6,-11.5 c 4.7,-1.7 8.3,-5.7 9.4,-10.7 l 11.8,1.2 c 0.4,3.8 3.6,6.7 7.5,6.7 4.2,0 7.6,-3.4 7.6,-7.6 -0.1,-3.9 -3.5,-7.3 -7.6,-7.3 z"
         id="path1509"
         style="fill:#00a3d3;fill-opacity:1" /></g></g><text
     xml:space="preserve"
     id="text9406"
     style="font-size:18.6667px;line-height:1.25;font-family:sans-serif;letter-spacing:0px;word-spacing:0px;white-space:pre;shape-inside:url(#rect9408)" /></svg>
