<?xml version="1.0" encoding="utf-8"?>
<!-- Generator: Adobe Illustrator 24.1.1, SVG Export Plug-In . SVG Version: 6.00 Build 0)  -->
<svg version="1.1"
	 id="svg12" inkscape:version="1.0.1 (3bc2e813f5, 2020-09-07)" sodipodi:docname="Mindmapp.svg" xmlns:cc="http://creativecommons.org/ns#" xmlns:dc="http://purl.org/dc/elements/1.1/" xmlns:inkscape="http://www.inkscape.org/namespaces/inkscape" xmlns:rdf="http://www.w3.org/1999/02/22-rdf-syntax-ns#" xmlns:sodipodi="http://sodipodi.sourceforge.net/DTD/sodipodi-0.dtd" xmlns:svg="http://www.w3.org/2000/svg"
	 xmlns="http://www.w3.org/2000/svg" xmlns:xlink="http://www.w3.org/1999/xlink" x="0px" y="0px" viewBox="0 0 427.7 86.5"
	 style="enable-background:new 0 0 427.7 86.5;" xml:space="preserve">
<style type="text/css">
	.st0{enable-background:new    ;}
	.st1{fill:#00A3D3;}
</style>
<sodipodi:namedview  bordercolor="#666666" borderopacity="1" gridtolerance="10" guidetolerance="10" id="namedview10" inkscape:current-layer="svg12" inkscape:cx="186.26271" inkscape:cy="40.027542" inkscape:document-rotation="0" inkscape:pageopacity="0" inkscape:pageshadow="2" inkscape:window-height="1019" inkscape:window-maximized="1" inkscape:window-width="1920" inkscape:window-x="0" inkscape:window-y="32" inkscape:zoom="2.93" objecttolerance="10" pagecolor="#ffffff" showgrid="false">
	</sodipodi:namedview>
<g class="st0">
	<path d="M137.4,71.3h-6.6l-1.7-22.2c-0.7-8.7-1.1-15.4-1.2-20.1l-10.6,36.7h-6.4L99.7,28.9c0,6-0.3,12.8-0.9,20.6l-1.6,21.7h-6.4
		l4.1-49.2h9.1l10.4,35.8l9.9-35.8h9.2L137.4,71.3z"/>
	<path d="M155.2,16.9c0.9,0.9,1.3,1.9,1.3,3.2c0,1.3-0.4,2.3-1.3,3.2c-0.9,0.8-2,1.3-3.4,1.3c-1.3,0-2.4-0.4-3.3-1.3
		c-0.9-0.8-1.3-1.9-1.3-3.2c0-1.3,0.4-2.4,1.3-3.2c0.9-0.9,2-1.3,3.3-1.3C153.2,15.6,154.3,16,155.2,16.9z M155.2,33.7v37.6h-6.6
		V33.7H155.2z"/>
	<path d="M194.5,35.9c1.9,2,2.9,4.9,2.9,8.4v27h-6.6V45.2c0-2.7-0.5-4.5-1.5-5.6c-1-1.1-2.5-1.6-4.4-1.6c-2,0-3.8,0.6-5.3,1.7
		c-1.5,1.1-3,2.8-4.3,4.9v26.7h-6.6V33.7h5.6l0.6,5.6c1.3-2,3-3.6,5-4.7c2-1.1,4.2-1.7,6.5-1.7C189.9,32.8,192.6,33.8,194.5,35.9z"
		/>
	<path d="M239.8,18.5v52.8H234l-0.6-5.2c-1.2,1.9-2.8,3.4-4.6,4.5c-1.9,1.1-3.9,1.6-6.2,1.6c-4.5,0-8-1.8-10.5-5.3
		c-2.5-3.5-3.8-8.3-3.8-14.2c0-3.9,0.6-7.3,1.8-10.3c1.2-3,2.9-5.3,5.1-7c2.2-1.7,4.9-2.5,7.9-2.5c3.9,0,7.2,1.5,10.1,4.6V17.7
		L239.8,18.5z M229.1,65.6c1.4-0.9,2.8-2.3,4.1-4.2V42.9c-1.2-1.6-2.6-2.8-4-3.7c-1.4-0.8-3-1.3-4.8-1.3c-2.9,0-5.2,1.2-6.8,3.6
		c-1.6,2.4-2.4,6-2.4,10.9c0,4.9,0.7,8.5,2.2,10.9c1.5,2.4,3.6,3.6,6.4,3.6C225.9,66.9,227.6,66.5,229.1,65.6z"/>
	<path d="M298.6,35.9c1.9,2.1,2.8,4.9,2.8,8.4v27h-6.6V45.2c0-4.9-1.8-7.3-5.3-7.3c-1.9,0-3.4,0.5-4.7,1.6c-1.3,1.1-2.7,2.8-4.1,5
		v26.7h-6.6V45.2c0-4.9-1.8-7.3-5.3-7.3c-1.9,0-3.5,0.5-4.8,1.6c-1.3,1.1-2.6,2.8-4.1,5v26.7h-6.6V33.7h5.6l0.6,5.5
		c2.8-4.2,6.4-6.4,10.9-6.4c2.3,0,4.3,0.6,6,1.8c1.6,1.2,2.8,2.9,3.5,5c1.5-2.2,3.1-3.9,4.9-5c1.8-1.2,3.9-1.8,6.3-1.8
		C294.2,32.8,296.7,33.8,298.6,35.9z"/>
	<path d="M340.7,65.9c0.5,0.7,1.3,1.3,2.4,1.7l-1.5,4.6c-2-0.2-3.5-0.8-4.7-1.6c-1.2-0.9-2.1-2.2-2.6-4c-2.5,3.8-6.3,5.6-11.2,5.6
		c-3.7,0-6.6-1-8.8-3.1c-2.1-2.1-3.2-4.8-3.2-8.2c0-4,1.4-7.1,4.3-9.2c2.9-2.1,7-3.2,12.3-3.2h5.8v-2.8c0-2.7-0.6-4.6-1.9-5.7
		c-1.3-1.1-3.3-1.7-5.9-1.7c-2.8,0-6.1,0.7-10.1,2l-1.6-4.8c4.7-1.7,9-2.6,13-2.6c4.4,0,7.7,1.1,9.9,3.3c2.2,2.2,3.3,5.3,3.3,9.3
		v17.2C339.9,64,340.2,65.2,340.7,65.9z M333.3,61.4v-8.6h-4.9c-7,0-10.4,2.6-10.4,7.7c0,2.2,0.5,3.9,1.6,5.1
		c1.1,1.1,2.7,1.7,4.9,1.7C328.2,67.2,331.2,65.3,333.3,61.4z"/>
	<path d="M381.3,37.9c2.2,3.4,3.4,8.3,3.4,14.5c0,5.9-1.3,10.7-3.9,14.3c-2.6,3.6-6.2,5.4-10.9,5.4c-4.2,0-7.5-1.4-9.9-4.3v17.9
		l-6.6,0.8V33.7h5.6l0.5,5.1c1.4-1.9,3-3.4,5-4.4c2-1,4-1.5,6.1-1.5C375.5,32.8,379,34.5,381.3,37.9z M377.6,52.5
		c0-9.6-2.8-14.4-8.5-14.4c-1.9,0-3.5,0.5-5.1,1.6c-1.5,1.1-2.9,2.5-4,4.2v18.4c1,1.5,2.1,2.6,3.6,3.4c1.4,0.8,3,1.2,4.7,1.2
		C374.5,66.8,377.6,62,377.6,52.5z"/>
	<path d="M423.7,37.9c2.2,3.4,3.4,8.3,3.4,14.5c0,5.9-1.3,10.7-3.9,14.3c-2.6,3.6-6.2,5.4-10.9,5.4c-4.2,0-7.5-1.4-9.9-4.3v17.9
		l-6.6,0.8V33.7h5.6l0.5,5.1c1.4-1.9,3-3.4,5-4.4c2-1,4-1.5,6.1-1.5C417.9,32.8,421.5,34.5,423.7,37.9z M420,52.5
		c0-9.6-2.8-14.4-8.5-14.4c-1.9,0-3.5,0.5-5.1,1.6c-1.5,1.1-2.9,2.5-4,4.2v18.4c1,1.5,2.1,2.6,3.6,3.4c1.4,0.8,3,1.2,4.7,1.2
		C416.9,66.8,420,62,420,52.5z"/>
</g>
<g id="g1527" transform="translate(196.7,-216.8)">
	<path id="path1509" class="st1" d="M-120.9,252.4c-3.4,0-6.2,2.2-7.2,5.2l-11.8-1.2c-0.1-4.7-2.3-8.8-5.8-11.4l7.9-13.4
		c0.7,0.2,1.5,0.4,2.4,0.4c4.2,0,7.6-3.4,7.6-7.6c0-4.2-3.4-7.6-7.6-7.6s-7.6,3.4-7.6,7.6c0,2.2,0.9,4.1,2.4,5.5l-7.9,13.4
		c-1.8-0.8-3.8-1.3-6-1.3c-3.6,0-6.8,1.3-9.4,3.4l-6.8-6.4c0.7-1.1,1.1-2.5,1.1-3.9c0-4.2-3.4-7.6-7.6-7.6c-4.2,0-7.6,3.4-7.6,7.6
		c0,4.2,3.4,7.6,7.6,7.6c1.6,0,3-0.5,4.3-1.3l6.8,6.4c-1.8,2.4-2.9,5.5-2.9,8.7c0,1,0.1,2.1,0.3,3l-13.9,4.7
		c-1.3-2.2-3.7-3.7-6.5-3.7c-4.2,0-7.6,3.4-7.6,7.6s3.4,7.6,7.6,7.6c4.2,0,7.6-3.4,7.6-7.6c0-0.3,0-0.5,0-0.8l13.9-4.7
		c2.3,5,7.3,8.4,13.2,8.4c0.6,0,1.1,0,1.6-0.1l2.6,11.5c-2.6,1.2-4.3,3.8-4.3,6.8c0,4.2,3.4,7.6,7.6,7.6c4.2,0,7.6-3.4,7.6-7.6
		s-3.4-7.6-7.6-7.6c0,0,0,0-0.1,0l-2.6-11.5c4.7-1.7,8.3-5.7,9.4-10.7l11.8,1.2c0.4,3.8,3.6,6.7,7.5,6.7c4.2,0,7.6-3.4,7.6-7.6
		C-113.4,255.8-116.8,252.4-120.9,252.4L-120.9,252.4z"/>
</g>
</svg>
