<svg width="30" height="30" viewBox="0 0 59 59" fill="none" xmlns="http://www.w3.org/2000/svg">
<g clip-path="url(#clip0_130_33)">
<path d="M29.3731 0C13.1543 0 0 13.1518 0 29.3731C0 42.3512 8.4154 53.3612 20.0888 57.2458C21.555 57.5175 22.0299 56.6069 22.0299 55.8334V50.3651C13.8592 52.1422 12.158 46.8991 12.158 46.8991C10.8216 43.5041 8.89516 42.6008 8.89516 42.6008C6.22955 40.7772 9.09833 40.8164 9.09833 40.8164C12.0479 41.022 13.5998 43.8443 13.5998 43.8443C16.2189 48.3335 20.4706 47.0362 22.1473 46.2847C22.4093 44.3877 23.1705 43.0904 24.0125 42.3585C17.4893 41.6119 10.6306 39.0932 10.6306 27.8408C10.6306 24.6318 11.7786 22.0127 13.6561 19.9566C13.3525 19.2149 12.3465 16.2262 13.9424 12.1825C13.9424 12.1825 16.4098 11.3943 22.0225 15.1933C24.365 14.5421 26.8764 14.2166 29.3731 14.2044C31.8699 14.2166 34.3837 14.5421 36.7311 15.1933C42.3389 11.3943 44.8014 12.1825 44.8014 12.1825C46.3998 16.2287 45.3937 19.2174 45.0902 19.9566C46.975 22.0127 48.1132 24.6343 48.1132 27.8408C48.1132 39.1226 41.2423 41.607 34.7019 42.334C35.7544 43.2446 36.7164 45.0315 36.7164 47.773V55.8334C36.7164 56.6143 37.1864 57.5322 38.6771 57.2433C50.3407 53.3538 58.7463 42.3463 58.7463 29.3731C58.7463 13.1518 45.5944 0 29.3731 0Z" fill="white"/>
</g>
<defs>
<clipPath id="clip0_130_33">
<rect width="58.7463" height="58.7463" fill="white"/>
</clipPath>
</defs>
</svg>
