<svg width="100" height="52" viewBox="0 0 100 52" fill="none" xmlns="http://www.w3.org/2000/svg">
<path d="M7.03825 50.112H2.4993V13.8146L7.03825 13.2742V50.112ZM12.4161 35.6715L23.0737 50.112H17.6471L7.33427 35.9653L16.9068 24.2266H21.9883L12.4166 35.6719L12.4161 35.6715ZM29.871 11.8004C30.8248 11.8004 31.598 12.095 32.1904 12.684C32.782 13.2737 33.0785 14.0107 33.0785 14.8947C33.0785 15.7787 32.782 16.5152 32.19 17.105C31.598 17.6616 30.8248 17.9397 29.871 17.9397C28.95 17.9397 28.1935 17.6612 27.6015 17.105C27.009 16.5152 26.713 15.7787 26.713 14.8947C26.713 14.0107 27.009 13.2742 27.6015 12.684C28.1935 12.0955 28.95 11.8004 29.871 11.8004ZM32.1904 50.112H27.6506V24.227H32.1896V50.112H32.1904ZM54.5114 48.9333C52.8007 50.112 50.8601 50.7014 48.6893 50.7014C46.4856 50.7014 44.7586 50.0793 43.5088 48.8347C42.2914 47.5586 41.6831 45.7246 41.6831 43.3344V27.7147H37.1437V24.227H41.6831V18.3824L46.222 17.8423V24.227H52.3902L51.8964 27.7147H46.2225V43.1375C46.2225 44.4795 46.4531 45.4622 46.9136 46.0843C47.4065 46.6733 48.213 46.9688 49.3313 46.9688C50.3509 46.9688 51.5013 46.6252 52.7849 45.9368L54.5114 48.9333ZM66.2697 23.6377C68.0467 23.6377 69.6417 23.8835 71.056 24.3746C72.4703 24.8657 73.8188 25.6026 75.1024 26.5853L73.1777 29.433C71.9936 28.6808 70.8582 28.1234 69.7732 27.764C68.7203 27.4035 67.6024 27.2236 66.4179 27.2236C64.9378 27.2236 63.7696 27.534 62.9144 28.1565C62.0592 28.7459 61.6325 29.564 61.6325 30.6122C61.6325 31.6604 62.0272 32.4789 62.8166 33.0683C63.6384 33.6572 65.1019 34.23 67.2077 34.7874C70.1017 35.5078 72.2567 36.49 73.6706 37.7342C75.1187 38.9784 75.8418 40.681 75.8418 42.8416C75.8418 45.3963 74.8393 47.3447 72.8321 48.6871C70.8586 50.0295 68.4409 50.701 65.579 50.701C61.6321 50.701 58.3588 49.5711 55.7604 47.3111L58.1781 44.5612C60.3814 46.2314 62.8162 47.0666 65.4803 47.0666C67.1911 47.0666 68.5396 46.7222 69.5263 46.035C70.5464 45.3151 71.0556 44.349 71.0556 43.1371C71.0556 42.2526 70.8753 41.5489 70.5131 41.0246C70.1508 40.4684 69.5255 39.9939 68.6379 39.6005C67.7494 39.1749 66.4504 38.7331 64.7401 38.2738C61.9772 37.5539 59.9709 36.5878 58.7206 35.3759C57.5032 34.1641 56.8949 32.626 56.8949 30.7589C56.8949 29.4165 57.2896 28.2046 58.079 27.1245C58.9017 26.0109 60.0196 25.16 61.4343 24.5702C62.8824 23.9485 64.4936 23.6377 66.2697 23.6377Z" fill="black"/>
<path d="M80.0907 1.3407L84.2786 5.50788L88.6381 9.84727L97.1833 1.3407H80.0907ZM97.4674 1.62305L88.92 10.13L93.295 14.483L97.4674 18.6366V1.62305ZM84.4033 14.6251L88.6351 10.4124L92.8669 14.6251L88.6351 18.8377L84.4033 14.6251ZM97.1833 18.919L93.1531 14.907L89.1208 18.919H97.1833ZM88.1533 18.919L83.9808 14.7658L79.8071 10.6122V18.919H88.1533ZM79.8071 10.0471L83.936 14.1556V5.73197L79.8071 1.62305V10.0471ZM79.8071 25.0166L85.5079 19.3429H79.8071V25.0166Z" fill="#00A3D3"/>
</svg>
