<svg width="272" height="273" viewBox="0 0 272 273" fill="none" xmlns="http://www.w3.org/2000/svg">
<path d="M245.032 122.383C234.161 122.383 225.208 129.44 222.01 139.067L184.28 135.22C183.96 120.136 176.926 106.975 165.735 98.6344L190.995 55.6307C193.233 56.2726 195.791 56.9144 198.666 56.9144C212.095 56.9144 222.97 46.003 222.97 32.5243C222.97 19.0423 212.098 8.13095 198.669 8.13095C185.239 8.13095 174.368 19.0423 174.368 32.5243C174.368 39.5814 177.246 45.6821 182.042 50.175L156.782 93.1755C151.027 90.6081 144.632 89.0035 137.597 89.0035C126.086 89.0035 115.854 93.1755 107.541 99.9148L85.7981 79.3758C88.0364 75.8456 89.3154 71.3527 89.3154 66.8598C89.3154 53.3843 78.4439 42.4697 65.0146 42.4697C51.5852 42.4697 40.7138 53.381 40.7138 66.8598C40.7138 80.3385 51.5852 91.2531 65.0146 91.2531C70.1305 91.2531 74.607 89.6485 78.7637 87.0811L100.507 107.617C94.7511 115.319 91.2338 125.268 91.2338 135.537C91.2338 138.746 91.5536 142.277 92.1931 145.165L47.7482 160.248C43.5915 153.188 35.9176 148.374 26.9647 148.374C13.5353 148.374 2.66388 159.286 2.66388 172.764C2.66388 186.243 13.5353 197.158 26.9647 197.158C40.394 197.158 51.2654 186.246 51.2654 172.764C51.2654 171.802 51.2654 171.16 51.2654 170.197L95.7103 155.114C103.064 171.16 119.052 182.071 137.917 182.071C139.839 182.071 141.437 182.071 143.036 181.75L151.349 218.656C143.036 222.504 137.6 230.851 137.6 240.479C137.6 253.958 148.472 264.869 161.901 264.869C175.331 264.869 186.205 253.961 186.205 240.479C186.205 226.997 175.327 216.089 161.898 216.089C161.898 216.089 161.898 216.089 161.578 216.089L153.265 179.183C168.29 173.73 179.804 160.893 183.318 144.847L221.051 148.695C222.33 160.893 232.565 170.197 245.032 170.197C258.462 170.197 269.336 159.289 269.336 145.807C269.013 133.291 258.142 122.383 245.032 122.383Z" fill="white" fill-opacity="0.4"/>
</svg>
