<?xml version="1.0" encoding="UTF-8" standalone="no"?>
<!DOCTYPE svg PUBLIC "-//W3C//DTD SVG 1.1//EN" "http://www.w3.org/Graphics/SVG/1.1/DTD/svg11.dtd">
<svg width="272" height="273" viewBox="0 0 100 100" version="1.1" xmlns="http://www.w3.org/2000/svg" xmlns:xlink="http://www.w3.org/1999/xlink" xml:space="preserve" xmlns:serif="http://www.serif.com/" style="fill-rule:evenodd;clip-rule:evenodd;stroke-linejoin:round;stroke-miterlimit:2;">
    <g transform="matrix(1.17554,0,0,1.17554,-8.77763,-8.77704)">
        <g id="g4">
            <path id="path2" d="M84.1,45.601C80.7,45.601 77.9,47.8 76.9,50.8L65.1,49.601C65,44.901 62.8,40.8 59.3,38.201L67.2,24.801C67.9,25.001 68.7,25.201 69.599,25.201C73.799,25.201 77.2,21.801 77.2,17.601C77.2,13.4 73.8,10 69.6,10C65.4,10 62,13.4 62,17.601C62,19.8 62.9,21.701 64.4,23.101L56.5,36.5C54.7,35.7 52.7,35.2 50.5,35.2C46.9,35.2 43.7,36.5 41.1,38.6L34.3,32.2C35,31.1 35.4,29.7 35.4,28.3C35.4,24.101 32,20.7 27.8,20.7C23.6,20.7 20.2,24.1 20.2,28.3C20.2,32.5 23.6,35.901 27.8,35.901C29.4,35.901 30.8,35.401 32.1,34.601L38.9,41C37.1,43.4 36,46.5 36,49.7C36,50.7 36.1,51.8 36.3,52.7L22.4,57.4C21.1,55.2 18.7,53.7 15.9,53.7C11.7,53.7 8.3,57.1 8.3,61.3C8.3,65.5 11.7,68.901 15.9,68.901C20.1,68.901 23.5,65.501 23.5,61.3L23.5,60.5L37.4,55.8C39.7,60.8 44.7,64.2 50.6,64.2C51.201,64.2 51.701,64.2 52.201,64.1L54.801,75.6C52.201,76.799 50.501,79.4 50.501,82.4C50.501,86.6 53.901,90 58.101,90C62.301,90 65.702,86.601 65.702,82.4C65.702,78.199 62.3,74.8 58.1,74.8L58,74.8L55.4,63.3C60.099,61.601 63.7,57.601 64.799,52.601L76.6,53.8C77,57.601 80.201,60.5 84.1,60.5C88.3,60.5 91.701,57.101 91.701,52.9C91.6,49 88.2,45.601 84.1,45.601Z" style="fill:#00a3d3;fill-rule:nonzero;"  fill-opacity="0.63"/>
        </g>
    </g>
</svg>
