<?xml version="1.0" encoding="UTF-8" standalone="no"?>
<svg
   inkscape:version="1.1.1 (3bf5ae0d25, 2021-09-20, custom)"
   sodipodi:docname="TeamMapper.svg"
   id="svg12"
   xml:space="preserve"
   viewBox="0 0 485.50327 82.605828"
   y="0px"
   x="0px"
   version="1.1"
   fill="#00a3d3"
   width="485.50327"
   height="82.605827"
   xmlns:inkscape="http://www.inkscape.org/namespaces/inkscape"
   xmlns:sodipodi="http://sodipodi.sourceforge.net/DTD/sodipodi-0.dtd"
   xmlns="http://www.w3.org/2000/svg"
   xmlns:svg="http://www.w3.org/2000/svg"
   xmlns:rdf="http://www.w3.org/1999/02/22-rdf-syntax-ns#"
   xmlns:cc="http://creativecommons.org/ns#"
   xmlns:dc="http://purl.org/dc/elements/1.1/"><g
     aria-label="Mindmapper"
     id="text13352"
     style="font-size:71.1261px;line-height:1.25;letter-spacing:0px;word-spacing:0px;fill:#000000;stroke-width:3.81032" /><sodipodi:namedview
     inkscape:document-rotation="0"
     pagecolor="#ffffff"
     bordercolor="#666666"
     borderopacity="1"
     objecttolerance="10"
     gridtolerance="10"
     guidetolerance="10"
     inkscape:pageopacity="0"
     inkscape:pageshadow="2"
     inkscape:window-width="1920"
     inkscape:window-height="1013"
     id="namedview10"
     showgrid="false"
     inkscape:zoom="1.57"
     inkscape:cx="243.63057"
     inkscape:cy="40.44586"
     inkscape:window-x="0"
     inkscape:window-y="38"
     inkscape:window-maximized="1"
     inkscape:current-layer="text1288"
     inkscape:pagecheckerboard="0" /><metadata
     id="metadata18"><rdf:RDF><cc:Work
         rdf:about=""><dc:format>image/svg+xml</dc:format><dc:type
           rdf:resource="http://purl.org/dc/dcmitype/StillImage" /></cc:Work></rdf:RDF></metadata><defs
     id="defs16"><rect
       x="98.075485"
       y="-128.74561"
       width="357.67181"
       height="63.396168"
       id="rect21756" /><rect
       x="48.933479"
       y="-147.54729"
       width="428.06354"
       height="72.858696"
       id="rect16910" /><rect
       x="82.83165"
       y="-116.96103"
       width="401.66907"
       height="81.458549"
       id="rect1940" /><rect
       x="101.00043"
       y="16.561638"
       width="350.64413"
       height="71.003944"
       id="rect9408" /><rect
       x="105.61219"
       y="9.0322132"
       width="208.49744"
       height="85.73774"
       id="rect837" /></defs><text
     xml:space="preserve"
     id="text835"
     style="font-style:normal;font-weight:normal;font-size:40px;line-height:1.25;font-family:sans-serif;letter-spacing:0px;word-spacing:0px;white-space:pre;shape-inside:url(#rect837);fill:#000000;fill-opacity:1;stroke:none"
     transform="translate(-0.82097303,-9.9724582)" /><g
     id="g31597"><g
       transform="translate(196.7,-216.8)"
       id="g1527"
       style="fill:#00a3d3;fill-opacity:1"><path
         d="m -120.9,252.4 c -3.4,0 -6.2,2.2 -7.2,5.2 l -11.8,-1.2 c -0.1,-4.7 -2.3,-8.8 -5.8,-11.4 l 7.9,-13.4 c 0.7,0.2 1.5,0.4 2.4,0.4 4.2,0 7.6,-3.4 7.6,-7.6 0,-4.2 -3.4,-7.6 -7.6,-7.6 -4.2,0 -7.6,3.4 -7.6,7.6 0,2.2 0.9,4.1 2.4,5.5 l -7.9,13.4 c -1.8,-0.8 -3.8,-1.3 -6,-1.3 -3.6,0 -6.8,1.3 -9.4,3.4 l -6.8,-6.4 c 0.7,-1.1 1.1,-2.5 1.1,-3.9 0,-4.2 -3.4,-7.6 -7.6,-7.6 -4.2,0 -7.6,3.4 -7.6,7.6 0,4.2 3.4,7.6 7.6,7.6 1.6,0 3,-0.5 4.3,-1.3 l 6.8,6.4 c -1.8,2.4 -2.9,5.5 -2.9,8.7 0,1 0.1,2.1 0.3,3 l -13.9,4.7 c -1.3,-2.2 -3.7,-3.7 -6.5,-3.7 -4.2,0 -7.6,3.4 -7.6,7.6 0,4.2 3.4,7.6 7.6,7.6 4.2,0 7.6,-3.4 7.6,-7.6 0,-0.3 0,-0.5 0,-0.8 l 13.9,-4.7 c 2.3,5 7.3,8.4 13.2,8.4 0.6,0 1.1,0 1.6,-0.1 l 2.6,11.5 c -2.6,1.2 -4.3,3.8 -4.3,6.8 0,4.2 3.4,7.6 7.6,7.6 4.2,0 7.6,-3.4 7.6,-7.6 0,-4.2 -3.4,-7.6 -7.6,-7.6 0,0 0,0 -0.1,0 l -2.6,-11.5 c 4.7,-1.7 8.3,-5.7 9.4,-10.7 l 11.8,1.2 c 0.4,3.8 3.6,6.7 7.5,6.7 4.2,0 7.6,-3.4 7.6,-7.6 -0.1,-3.9 -3.5,-7.3 -7.6,-7.3 z"
         id="path1509"
         style="fill:#00a3d3;fill-opacity:1" /></g><g
       aria-label="Mappermind"
       transform="matrix(3.7234121,0,0,3.7234121,-280.58657,487.68433)"
       id="text21754"
       style="font-size:18.6667px;line-height:1.25;letter-spacing:0px;word-spacing:0px;white-space:pre;shape-inside:url(#rect21756)"><g
         aria-label="TeamMapper"
         id="text1288"
         style="font-size:18.3753px;stroke-width:0.984389"><path
           d="m 108.37866,-123.8784 h -3.50969 v 11.17218 h -1.74565 v -11.17218 h -3.601559 v -1.4884 h 9.040649 z"
           style="font-family:'Fira Sans';-inkscape-font-specification:'Fira Sans';fill:#000000"
           id="path9134" /><path
           d="m 116.79454,-117.83293 q 0,0.42263 -0.0367,0.86364 h -6.1741 q 0.11025,1.59865 0.80851,2.35204 0.69826,0.75338 1.80078,0.75338 0.69826,0 1.28627,-0.20212 0.58801,-0.20213 1.23115,-0.64314 l 0.73501,1.01064 q -1.54352,1.21277 -3.38105,1.21277 -2.02129,0 -3.16056,-1.32302 -1.12089,-1.32302 -1.12089,-3.63831 0,-1.50677 0.47776,-2.66442 0.49613,-1.17602 1.39652,-1.83753 0.91877,-0.66151 2.14991,-0.66151 1.92941,0 2.95842,1.2679 1.02902,1.26789 1.02902,3.50968 z m -1.67215,-0.49613 q 0,-1.43328 -0.56964,-2.18666 -0.56963,-0.75339 -1.7089,-0.75339 -2.07641,0 -2.26016,3.0503 h 4.5387 z"
           style="font-family:'Fira Sans';-inkscape-font-specification:'Fira Sans';fill:#000000"
           id="path9136" /><path
           d="m 125.81684,-114.96638 q 0,0.58801 0.20213,0.88201 0.20213,0.27563 0.60638,0.42263 l -0.38588,1.17602 q -0.75339,-0.0919 -1.21277,-0.42263 -0.45938,-0.33076 -0.67988,-1.02902 -0.9739,1.45165 -2.88493,1.45165 -1.43327,0 -2.26016,-0.80851 -0.82689,-0.80852 -0.82689,-2.11316 0,-1.54353 1.10252,-2.37042 1.12089,-0.82688 3.16055,-0.82688 h 1.4884 v -0.71664 q 0,-1.02902 -0.49613,-1.47002 -0.49613,-0.44101 -1.52515,-0.44101 -1.06577,0 -2.60929,0.51451 l -0.42264,-1.23115 q 1.80078,-0.66151 3.34431,-0.66151 1.7089,0 2.55417,0.84526 0.84526,0.82689 0.84526,2.37042 z m -3.96906,1.21277 q 1.45164,0 2.27853,-1.50678 v -2.22341 h -1.26789 q -2.6828,0 -2.6828,1.98453 0,0.86364 0.42263,1.30465 0.42264,0.44101 1.24953,0.44101 z"
           style="font-family:'Fira Sans';-inkscape-font-specification:'Fira Sans';fill:#000000"
           id="path9138" /><path
           d="m 138.95517,-122.61051 q 1.19439,0 1.91103,0.80851 0.71664,0.79014 0.71664,2.14991 v 6.94587 h -1.69053 v -6.70699 q 0,-1.87428 -1.35977,-1.87428 -0.71664,0 -1.21277,0.42263 -0.49613,0.40426 -1.06577,1.28628 v 6.87236 h -1.69053 v -6.70699 q 0,-1.87428 -1.35977,-1.87428 -0.73501,0 -1.23114,0.42263 -0.49614,0.42264 -1.0474,1.28628 v 6.87236 h -1.69052 v -9.68379 h 1.45165 l 0.147,1.4149 q 1.08414,-1.6354 2.79304,-1.6354 0.90039,0 1.52515,0.45938 0.64314,0.45939 0.91877,1.28627 0.56963,-0.84526 1.24952,-1.28627 0.69826,-0.45938 1.6354,-0.45938 z"
           style="font-family:'Fira Sans';-inkscape-font-specification:'Fira Sans';fill:#000000"
           id="path9140" /><path
           d="m 156.31983,-112.70622 h -1.69052 l -0.44101,-5.71472 q -0.27563,-3.36268 -0.31238,-5.16346 l -2.73792,9.4449 h -1.6354 l -2.88492,-9.46328 q 0,2.29692 -0.23888,5.31047 l -0.42263,5.58609 h -1.65378 l 1.04739,-12.66058 h 2.35204 l 2.66442,9.20602 2.53579,-9.20602 h 2.37041 z"
           style="font-family:'Fira Sans';-inkscape-font-specification:'Fira Sans';fill:#000000"
           id="path9142" /><path
           d="m 165.63611,-114.96638 q 0,0.58801 0.20213,0.88201 0.20213,0.27563 0.60638,0.42263 l -0.38588,1.17602 q -0.75338,-0.0919 -1.21277,-0.42263 -0.45938,-0.33076 -0.67988,-1.02902 -0.97389,1.45165 -2.88493,1.45165 -1.43327,0 -2.26016,-0.80851 -0.82689,-0.80852 -0.82689,-2.11316 0,-1.54353 1.10252,-2.37042 1.1209,-0.82688 3.16055,-0.82688 h 1.4884 v -0.71664 q 0,-1.02902 -0.49613,-1.47002 -0.49613,-0.44101 -1.52515,-0.44101 -1.06577,0 -2.60929,0.51451 l -0.42263,-1.23115 q 1.80078,-0.66151 3.3443,-0.66151 1.7089,0 2.55417,0.84526 0.84526,0.82689 0.84526,2.37042 z m -3.96906,1.21277 q 1.45164,0 2.27853,-1.50678 v -2.22341 h -1.26789 q -2.6828,0 -2.6828,1.98453 0,0.86364 0.42264,1.30465 0.42263,0.44101 1.24952,0.44101 z"
           style="font-family:'Fira Sans';-inkscape-font-specification:'Fira Sans';fill:#000000"
           id="path9144" /><path
           d="m 173.50073,-122.61051 q 1.85591,0 2.71954,1.32302 0.86364,1.32302 0.86364,3.73019 0,2.27854 -0.99226,3.67506 -0.99227,1.39652 -2.81142,1.39652 -1.61703,0 -2.53579,-1.10252 v 4.59383 l -1.69053,0.20213 v -13.59773 h 1.45165 l 0.12862,1.30465 q 0.53289,-0.73501 1.28627,-1.12089 0.75339,-0.40426 1.58028,-0.40426 z m -0.62476,8.74664 q 2.38879,0 2.38879,-3.69343 0,-3.71181 -2.18666,-3.71181 -0.71664,0 -1.30465,0.42263 -0.58801,0.42263 -1.02901,1.08414 v 4.72245 q 0.3675,0.56964 0.91876,0.88202 0.55126,0.294 1.21277,0.294 z"
           style="font-family:'Fira Sans';-inkscape-font-specification:'Fira Sans';fill:#000000"
           id="path9146" /><path
           d="m 184.26866,-122.61051 q 1.8559,0 2.71954,1.32302 0.86364,1.32302 0.86364,3.73019 0,2.27854 -0.99226,3.67506 -0.99227,1.39652 -2.81142,1.39652 -1.61703,0 -2.5358,-1.10252 v 4.59383 l -1.69052,0.20213 v -13.59773 h 1.45165 l 0.12862,1.30465 q 0.53289,-0.73501 1.28627,-1.12089 0.75339,-0.40426 1.58028,-0.40426 z m -0.62476,8.74664 q 2.38879,0 2.38879,-3.69343 0,-3.71181 -2.18666,-3.71181 -0.71664,0 -1.30465,0.42263 -0.58801,0.42263 -1.02902,1.08414 v 4.72245 q 0.36751,0.56964 0.91877,0.88202 0.55126,0.294 1.21277,0.294 z"
           style="font-family:'Fira Sans';-inkscape-font-specification:'Fira Sans';fill:#000000"
           id="path9148" /><path
           d="m 197.95827,-117.83293 q 0,0.42263 -0.0368,0.86364 h -6.1741 q 0.11025,1.59865 0.80851,2.35204 0.69826,0.75338 1.80078,0.75338 0.69826,0 1.28627,-0.20212 0.58801,-0.20213 1.23115,-0.64314 l 0.73501,1.01064 q -1.54353,1.21277 -3.38106,1.21277 -2.02128,0 -3.16055,-1.32302 -1.12089,-1.32302 -1.12089,-3.63831 0,-1.50677 0.47776,-2.66442 0.49613,-1.17602 1.39652,-1.83753 0.91876,-0.66151 2.14991,-0.66151 1.92941,0 2.95842,1.2679 1.02902,1.26789 1.02902,3.50968 z m -1.67215,-0.49613 q 0,-1.43328 -0.56964,-2.18666 -0.56963,-0.75339 -1.7089,-0.75339 -2.07641,0 -2.26016,3.0503 h 4.5387 z"
           style="font-family:'Fira Sans';-inkscape-font-specification:'Fira Sans';fill:#000000"
           id="path9150" /><path
           d="m 204.7939,-122.61051 q 0.5145,0 0.95551,0.11025 l -0.31238,1.65378 q -0.44101,-0.11025 -0.84526,-0.11025 -0.90039,0 -1.45165,0.66151 -0.55126,0.66151 -0.86364,2.05803 v 5.53097 h -1.69053 v -9.68379 h 1.45165 l 0.16538,1.96616 q 0.38588,-1.08414 1.04739,-1.6354 0.66151,-0.55126 1.54353,-0.55126 z"
           style="font-family:'Fira Sans';-inkscape-font-specification:'Fira Sans';fill:#000000"
           id="path9152" /></g></g><text
       xml:space="preserve"
       id="text1938"
       style="font-style:normal;font-variant:normal;font-weight:normal;font-stretch:normal;font-size:18.6667px;line-height:1.25;font-family:'Fira Sans';-inkscape-font-specification:'Fira Sans';letter-spacing:0px;word-spacing:0px;white-space:pre;shape-inside:url(#rect1940)" /><text
       xml:space="preserve"
       style="font-style:normal;font-variant:normal;font-weight:normal;font-stretch:normal;font-size:18.6667px;line-height:1.25;font-family:'Fira Sans';-inkscape-font-specification:'Fira Sans';letter-spacing:0px;word-spacing:0px;fill:#000000"
       x="118.44115"
       y="-96.540749"
       id="text4696"><tspan
         sodipodi:role="line"
         id="tspan4694"
         x="118.44115"
         y="-96.540749" /></text><text
       xml:space="preserve"
       id="text16908"
       style="font-size:18.6667px;line-height:1.25;font-family:sans-serif;letter-spacing:0px;word-spacing:0px;white-space:pre;shape-inside:url(#rect16910)" /></g><text
     xml:space="preserve"
     id="text9406"
     style="font-size:18.6667px;line-height:1.25;font-family:sans-serif;letter-spacing:0px;word-spacing:0px;white-space:pre;shape-inside:url(#rect9408)" /></svg>
